{
  "asset": {
    "version": "2.0",
    "generator": "THREE.GLTFExporter r170"
  },
  "scenes": [
    {
      "name": "Scene",
      "nodes": [
        0,
        1,
        2,
        3,
        4,
        5,
        6,
        7,
        8,
        9,
        10,
        11,
        12,
        13,
        14,
        15,
        16,
        17,
        18,
        19,
        20
      ]
    }
  ],
  "scene": 0,
  "nodes": [
    {
      "matrix": [
        264.2912753071663,
        0,
        0,
        0,
        0,
        5.974514407575794e-14,
        269.06820859678004,
        0,
        0,
        -18.6931535851931,
        4.150713902627135e-15,
        0,
        0,
        -0.8566411949547175,
        0,
        1
      ],
      "name": "Box",
      "mesh": 0
    },
    {
      "name": "AmbientLight"
    },
    {
      "matrix": [
        1,
        0,
        0,
        0,
        0,
        1,
        0,
        0,
        0,
        0,
        1,
        0,
        -1.7836493192192533,
        11.879059575117106,
        4.734805594343438,
        1
      ],
      "name": "DirectionalLight",
      "extensions": {
        "KHR_lights_punctual": {
          "light": 0
        }
      }
    },
    {
      "matrix": [
        1,
        0,
        0,
        0,
        0,
        1,
        0,
        0,
        0,
        0,
        1,
        0,
        10.266537511166302,
        -9.416029274615436,
        -11.943557308999052,
        1
      ],
      "name": "DirectionalLight",
      "extensions": {
        "KHR_lights_punctual": {
          "light": 1
        }
      }
    },
    {
      "matrix": [
        44.5100847474382,
        0,
        0,
        0,
        0,
        4.140907890808947,
        0,
        0,
        0,
        0,
        60.71387312603112,
        0,
        1.2881621804543444,
        6.963472696719521,
        0,
        1
      ],
      "name": "Box",
      "mesh": 1
    },
    {
      "matrix": [
        -5.690666730780521,
        -5.2402049257554,
        0,
        0,
        5.2402049257554,
        -5.690666730780521,
        0,
        0,
        0,
        0,
        -7.735853896288594,
        0,
        51.951084620095486,
        7.7322239344159485,
        0,
        1
      ],
      "name": "Box",
      "mesh": 2
    },
    {
      "matrix": [
        -5.690666730780521,
        -5.2402049257554,
        0,
        0,
        5.2402049257554,
        -5.690666730780521,
        0,
        0,
        0,
        0,
        -7.735853896288594,
        0,
        51.89236264830318,
        8.304962264706793,
        17.062312208391248,
        1
      ],
      "name": "Box",
      "mesh": 2
    },
    {
      "matrix": [
        11.741140857776347,
        -38.94223664957255,
        0,
        0,
        34.824638862317016,
        10.499679149994185,
        0,
        0,
        0,
        0,
        -130.58638951053464,
        0,
        111.56522421496385,
        15.837950829679654,
        17.062312208391248,
        1
      ],
      "name": "Box",
      "mesh": 2
    },
    {
      "matrix": [
        -13.947113889282226,
        46.25886157351086,
        0,
        0,
        -41.36763286032551,
        -12.472401334739219,
        0,
        0,
        0,
        0,
        41.42314895661357,
        0,
        35.8536866548107,
        21.095948053662287,
        113.03915558801211,
        1
      ],
      "name": "Box",
      "mesh": 2
    },
    {
      "matrix": [
        25.19013720764562,
        72.85688723503155,
        0,
        0,
        -40.83509816550288,
        14.118661456923965,
        0,
        0,
        0,
        0,
        41.42314895661357,
        0,
        -59.46764241498904,
        21.969457301966813,
        77.22548817355371,
        1
      ],
      "name": "Box",
      "mesh": 2
    },
    {
      "matrix": [
        -3.859078512959457,
        1.1279191546893446e-15,
        -3.8034130312214156,
        0,
        -0.5400365024682182,
        3.7396234225565026,
        0.5479402961974968,
        0,
        109.67736996924633,
        32.1438751370877,
        -111.2825712936838,
        0,
        -14.266275036851688,
        77.85597225664091,
        2.553259173264429,
        1
      ],
      "name": "Box",
      "mesh": 3
    },
    {
      "matrix": [
        2.742904199125503,
        312.3140109905524,
        0,
        0,
        -9.646859577627449,
        0.08472374185175074,
        0,
        0,
        0,
        0,
        71.24801663740817,
        0,
        -29.679509931845846,
        75.14218381833074,
        -99.99295979700032,
        1
      ],
      "name": "Box",
      "mesh": 2
    },
    {
      "matrix": [
        2.742904199125607,
        312.31401099055245,
        -8.148662084833388e-13,
        0,
        -0.15093477159473775,
        0.0013255877233807351,
        9.646050733872213,
        0,
        112.88496701205601,
        -0.991414535177187,
        1.7664826144388803,
        0,
        -85.01702659089004,
        76.17885321658308,
        -65.87696994391135,
        1
      ],
      "name": "Box",
      "mesh": 2
    },
    {
      "matrix": [
        4.58580875101116,
        -0.18558873789188307,
        -2.8799917664409054,
        0,
        0.20723167284602798,
        3.8113775185529386,
        0.0843669340855546,
        0,
        84.52184083559327,
        -7.585521813243611,
        135.072880869984,
        0,
        11.242291874086844,
        95.09716760388832,
        -97.97551692568359,
        1
      ],
      "name": "Box",
      "mesh": 3
    },
    {
      "matrix": [
        4.731786626052686,
        6.8233654499375245,
        0,
        0,
        -6.101889826153419,
        4.23146625882453,
        0,
        0,
        0,
        0,
        7.118955754800663,
        0,
        16.658010379833808,
        39.819202376168256,
        111.10559776861695,
        1
      ],
      "name": "Box",
      "mesh": 2
    },
    {
      "matrix": [
        19.902622997519845,
        0,
        0,
        0,
        0,
        4.076675451578322,
        0,
        0,
        0,
        0,
        13.74416281304498,
        0,
        -41.479649557135,
        71.05200034693894,
        -127.63719189150717,
        1
      ],
      "name": "Box",
      "mesh": 4
    },
    {
      "matrix": [
        19.90258425639774,
        -0.034572853813949124,
        -0.0186230012001773,
        0,
        0.007083741419926666,
        4.0766686525986335,
        0.0022923848827919513,
        0,
        0.012847047078135495,
        -0.0077509113782154755,
        13.744154623265946,
        0,
        -89.80028523129913,
        86.43776861204644,
        -77.29476173543414,
        1
      ],
      "name": "Box",
      "mesh": 4
    },
    {
      "matrix": [
        19.902622997519845,
        0,
        0,
        0,
        0,
        4.076675451578322,
        0,
        0,
        0,
        0,
        13.74416281304498,
        0,
        -41.479649557135,
        75.03878225981565,
        -98.02436062031606,
        1
      ],
      "name": "Box",
      "mesh": 4
    },
    {
      "matrix": [
        19.902622997519845,
        0,
        0,
        0,
        0,
        4.076675451578322,
        0,
        0,
        0,
        0,
        13.74416281304498,
        0,
        -58.763414767945164,
        81.48050852675735,
        -74.69049764628897,
        1
      ],
      "name": "Box",
      "mesh": 4
    },
    {
      "matrix": [
        1.7503978984740136,
        -0.013163545452856395,
        -0.000692666172012265,
        0,
        0.030657470633534988,
        4.07656001539529,
        0.0011392436175533662,
        0,
        0.005409638123512464,
        -0.003881653572675658,
        13.744161200308639,
        0,
        -98.81537845211768,
        88.83538257926566,
        -77.29476173543414,
        1
      ],
      "name": "Box",
      "mesh": 4
    },
    {
      "matrix": [
        19.902622997519845,
        0,
        0,
        0,
        0,
        4.076675451578322,
        0,
        0,
        0,
        0,
        3.082334752215118,
        0,
        -89.80028523129913,
        88.9522246451579,
        -83.39825700840795,
        1
      ],
      "name": "Box",
      "mesh": 4
    }
  ],
  "bufferViews": [
    {
      "buffer": 0,
      "byteOffset": 0,
      "byteLength": 288,
      "target": 34962,
      "byteStride": 12
    },
    {
      "buffer": 0,
      "byteOffset": 288,
      "byteLength": 288,
      "target": 34962,
      "byteStride": 12
    },
    {
      "buffer": 0,
      "byteOffset": 576,
      "byteLength": 192,
      "target": 34962,
      "byteStride": 8
    },
    {
      "buffer": 0,
      "byteOffset": 768,
      "byteLength": 72,
      "target": 34963
    },
    {
      "buffer": 0,
      "byteOffset": 840,
      "byteLength": 288,
      "target": 34962,
      "byteStride": 12
    },
    {
      "buffer": 0,
      "byteOffset": 1128,
      "byteLength": 288,
      "target": 34962,
      "byteStride": 12
    },
    {
      "buffer": 0,
      "byteOffset": 1416,
      "byteLength": 192,
      "target": 34962,
      "byteStride": 8
    },
    {
      "buffer": 0,
      "byteOffset": 1608,
      "byteLength": 72,
      "target": 34963
    },
    {
      "buffer": 0,
      "byteOffset": 1680,
      "byteLength": 288,
      "target": 34962,
      "byteStride": 12
    },
    {
      "buffer": 0,
      "byteOffset": 1968,
      "byteLength": 288,
      "target": 34962,
      "byteStride": 12
    },
    {
      "buffer": 0,
      "byteOffset": 2256,
      "byteLength": 192,
      "target": 34962,
      "byteStride": 8
    },
    {
      "buffer": 0,
      "byteOffset": 2448,
      "byteLength": 72,
      "target": 34963
    },
    {
      "buffer": 0,
      "byteOffset": 2520,
      "byteLength": 288,
      "target": 34962,
      "byteStride": 12
    },
    {
      "buffer": 0,
      "byteOffset": 2808,
      "byteLength": 288,
      "target": 34962,
      "byteStride": 12
    },
    {
      "buffer": 0,
      "byteOffset": 3096,
      "byteLength": 192,
      "target": 34962,
      "byteStride": 8
    },
    {
      "buffer": 0,
      "byteOffset": 3288,
      "byteLength": 72,
      "target": 34963
    },
    {
      "buffer": 0,
      "byteOffset": 3360,
      "byteLength": 288,
      "target": 34962,
      "byteStride": 12
    },
    {
      "buffer": 0,
      "byteOffset": 3648,
      "byteLength": 288,
      "target": 34962,
      "byteStride": 12
    },
    {
      "buffer": 0,
      "byteOffset": 3936,
      "byteLength": 192,
      "target": 34962,
      "byteStride": 8
    },
    {
      "buffer": 0,
      "byteOffset": 4128,
      "byteLength": 72,
      "target": 34963
    }
  ],
  "buffers": [
    {
      "byteLength": 4200,
      "uri": "data:application/octet-stream;base64,"
    }
  ],
  "accessors": [
    {
      "bufferView": 0,
      "componentType": 5126,
      "count": 24,
      "max": [
        0.5,
        0.5,
        0.5
      ],
      "min": [
        -0.5,
        -0.5,
        -0.5
      ],
      "type": "VEC3"
    },
    {
      "bufferView": 1,
      "componentType": 5126,
      "count": 24,
      "max": [
        1,
        1,
        1
      ],
      "min": [
        -1,
        -1,
        -1
      ],
      "type": "VEC3"
    },
    {
      "bufferView": 2,
      "componentType": 5126,
      "count": 24,
      "max": [
        1,
        1
      ],
      "min": [
        0,
        0
      ],
      "type": "VEC2"
    },
    {
      "bufferView": 3,
      "componentType": 5123,
      "count": 36,
      "max": [
        23
      ],
      "min": [
        0
      ],
      "type": "SCALAR"
    },
    {
      "bufferView": 4,
      "componentType": 5126,
      "count": 24,
      "max": [
        0.5,
        0.5,
        0.5
      ],
      "min": [
        -0.5,
        -0.5,
        -0.5
      ],
      "type": "VEC3"
    },
    {
      "bufferView": 5,
      "componentType": 5126,
      "count": 24,
      "max": [
        1,
        1,
        1
      ],
      "min": [
        -1,
        -1,
        -1
      ],
      "type": "VEC3"
    },
    {
      "bufferView": 6,
      "componentType": 5126,
      "count": 24,
      "max": [
        1,
        1
      ],
      "min": [
        0,
        0
      ],
      "type": "VEC2"
    },
    {
      "bufferView": 7,
      "componentType": 5123,
      "count": 36,
      "max": [
        23
      ],
      "min": [
        0
      ],
      "type": "SCALAR"
    },
    {
      "bufferView": 8,
      "componentType": 5126,
      "count": 24,
      "max": [
        0.5,
        0.5,
        0.5
      ],
      "min": [
        -0.5,
        -0.5,
        -0.5
      ],
      "type": "VEC3"
    },
    {
      "bufferView": 9,
      "componentType": 5126,
      "count": 24,
      "max": [
        1,
        1,
        1
      ],
      "min": [
        -1,
        -1,
        -1
      ],
      "type": "VEC3"
    },
    {
      "bufferView": 10,
      "componentType": 5126,
      "count": 24,
      "max": [
        1,
        1
      ],
      "min": [
        0,
        0
      ],
      "type": "VEC2"
    },
    {
      "bufferView": 11,
      "componentType": 5123,
      "count": 36,
      "max": [
        23
      ],
      "min": [
        0
      ],
      "type": "SCALAR"
    },
    {
      "bufferView": 12,
      "componentType": 5126,
      "count": 24,
      "max": [
        0.5,
        0.5,
        0.5
      ],
      "min": [
        -0.5,
        -0.5,
        -0.5
      ],
      "type": "VEC3"
    },
    {
      "bufferView": 13,
      "componentType": 5126,
      "count": 24,
      "max": [
        1,
        1,
        1
      ],
      "min": [
        -1,
        -1,
        -1
      ],
      "type": "VEC3"
    },
    {
      "bufferView": 14,
      "componentType": 5126,
      "count": 24,
      "max": [
        1,
        1
      ],
      "min": [
        0,
        0
      ],
      "type": "VEC2"
    },
    {
      "bufferView": 15,
      "componentType": 5123,
      "count": 36,
      "max": [
        23
      ],
      "min": [
        0
      ],
      "type": "SCALAR"
    },
    {
      "bufferView": 16,
      "componentType": 5126,
      "count": 24,
      "max": [
        0.5,
        0.5,
        0.5
      ],
      "min": [
        -0.5,
        -0.5,
        -0.5
      ],
      "type": "VEC3"
    },
    {
      "bufferView": 17,
      "componentType": 5126,
      "count": 24,
      "max": [
        1,
        1,
        1
      ],
      "min": [
        -1,
        -1,
        -1
      ],
      "type": "VEC3"
    },
    {
      "bufferView": 18,
      "componentType": 5126,
      "count": 24,
      "max": [
        1,
        1
      ],
      "min": [
        0,
        0
      ],
      "type": "VEC2"
    },
    {
      "bufferView": 19,
      "componentType": 5123,
      "count": 36,
      "max": [
        23
      ],
      "min": [
        0
      ],
      "type": "SCALAR"
    }
  ],
  "materials": [
    {
      "pbrMetallicRoughness": {
        "baseColorFactor": [
          0.06847816983662762,
          0.17144110072255403,
          0.08437621153575764,
          1
        ],
        "metallicFactor": 0,
        "roughnessFactor": 1
      }
    },
    {
      "pbrMetallicRoughness": {
        "metallicFactor": 0,
        "roughnessFactor": 1
      }
    },
    {
      "pbrMetallicRoughness": {
        "metallicFactor": 0,
        "roughnessFactor": 1
      }
    },
    {
      "pbrMetallicRoughness": {
        "metallicFactor": 0,
        "roughnessFactor": 1
      }
    },
    {
      "pbrMetallicRoughness": {
        "baseColorFactor": [
          0.4969329950515914,
          0,
          1,
          1
        ],
        "metallicFactor": 0,
        "roughnessFactor": 1
      }
    }
  ],
  "meshes": [
    {
      "primitives": [
        {
          "mode": 4,
          "attributes": {
            "POSITION": 0,
            "NORMAL": 1,
            "TEXCOORD_0": 2
          },
          "indices": 3,
          "material": 0
        }
      ]
    },
    {
      "primitives": [
        {
          "mode": 4,
          "attributes": {
            "POSITION": 4,
            "NORMAL": 5,
            "TEXCOORD_0": 6
          },
          "indices": 7,
          "material": 1
        }
      ]
    },
    {
      "primitives": [
        {
          "mode": 4,
          "attributes": {
            "POSITION": 8,
            "NORMAL": 9,
            "TEXCOORD_0": 10
          },
          "indices": 11,
          "material": 2
        }
      ]
    },
    {
      "primitives": [
        {
          "mode": 4,
          "attributes": {
            "POSITION": 12,
            "NORMAL": 13,
            "TEXCOORD_0": 14
          },
          "indices": 15,
          "material": 3
        }
      ]
    },
    {
      "primitives": [
        {
          "mode": 4,
          "attributes": {
            "POSITION": 16,
            "NORMAL": 17,
            "TEXCOORD_0": 18
          },
          "indices": 19,
          "material": 4
        }
      ]
    }
  ],
  "extensions": {
    "KHR_lights_punctual": {
      "lights": [
        {
          "name": "DirectionalLight",
          "color": [
            1,
            1,
            1
          ],
          "intensity": 1,
          "type": "directional"
        },
        {
          "name": "DirectionalLight",
          "color": [
            1,
            1,
            1
          ],
          "intensity": 1,
          "type": "directional"
        }
      ]
    }
  },
  "extensionsUsed": [
    "KHR_lights_punctual"
  ]
}